<svg xmlns="http://www.w3.org/2000/svg" viewBox="0 0 512 512">
  <defs>
    <linearGradient id="grad1" x1="0%" y1="0%" x2="100%" y2="100%">
      <stop offset="0%" style="stop-color:#8b5cf6;stop-opacity:1" />
      <stop offset="100%" style="stop-color:#6d28d9;stop-opacity:1" />
    </linearGradient>
  </defs>
  <path d="M144 128C64.5 128 0 192.5 0 272c0 49.3 24.8 92.9 63.6 119.5-2.2 16.5-10.2 39.7-27.4 57.6-3.8 4-4.2 10.1-1 14.6 3.2 4.5 9.1 5.9 14.1 3.5 32.8-15.8 59.9-30.8 77.2-41 5.8.5 11.7.8 17.6.8 79.5 0 144-64.5 144-144s-64.5-144-144-144z" fill="url(#grad1)"/>
  <path d="M368 0c-79.5 0-144 64.5-144 144 0 5.4.3 10.8.8 16 16.4-9.3 35.1-16 55.2-16 66.8 0 120.9 54.1 120.9 120.9 0 20.1-6.7 38.8-16 55.2 5.2.5 10.6.8 16 .8 17.6 0 44.4 15.2 77.2 31 5 2.4 10.9 1 14.1-3.5 3.2-4.5 2.8-10.6-1-14.6-17.2-17.9-25.2-41-27.4-57.6C503.2 248.9 528 205.3 528 156c0-79.5-64.5-144-144-144z" fill="#a78bfa" opacity="0.9"/>
</svg>
